HIERARCHY
ROOT hip
{
	OFFSET 0.000000 0.000000 0.000000
	CHANNELS 6 Xposition Yposition Zposition Xrotation Zrotation Yrotation 
	JOINT abdomen
	{
		OFFSET 0.000000 3.422050 0.000000
		CHANNELS 3 Xrotation Zrotation Yrotation 
		JOINT chest
		{
			OFFSET 0.000000 8.486693 -0.684411
			CHANNELS 3 Xrotation Zrotation Yrotation 
			JOINT neck
			{
				OFFSET 0.000000 10.266162 -0.273764
				CHANNELS 3 Xrotation Zrotation Yrotation 
				JOINT head
				{
					OFFSET 0.000000 3.148285 0.000000
					CHANNELS 3 Xrotation Zrotation Yrotation 
					End Site
					{
						OFFSET 0.000000 3.148289 0.000000
					}
				}
			}
			JOINT lCollar
			{
				OFFSET 3.422053 6.707223 -0.821293
				CHANNELS 3 Yrotation Zrotation Xrotation 
				JOINT lShldr
				{
					OFFSET 3.285171 0.000000 0.000000
					CHANNELS 3 Zrotation Yrotation Xrotation 
					JOINT lForeArm
					{
						OFFSET 10.129278 0.000000 0.000000
						CHANNELS 3 Yrotation Zrotation Xrotation 
						JOINT lHand
						{
							OFFSET 8.486692 0.000000 0.000000
							CHANNELS 3 Zrotation Yrotation Xrotation 
							End Site
							{
								OFFSET 4.106464 0.000000 0.000000
							}
						}
					}
				}
			}
			JOINT rCollar
			{
				OFFSET -3.558935 6.707223 -0.821293
				CHANNELS 3 Yrotation Zrotation Xrotation 
				JOINT rShldr
				{
					OFFSET -3.148289 0.000000 0.000000
					CHANNELS 3 Zrotation Yrotation Xrotation 
					JOINT rForeArm
					{
						OFFSET -10.266159 0.000000 0.000000
						CHANNELS 3 Yrotation Zrotation Xrotation 
						JOINT rHand
						{
							OFFSET -8.349810 0.000000 0.000000
							CHANNELS 3 Zrotation Yrotation Xrotation 
							End Site
							{
								OFFSET -4.106464 0.000000 0.000000
							}
						}
					}
				}
			}
		}
	}
	JOINT lThigh
	{
		OFFSET 5.338403 -1.642589 1.368821
		CHANNELS 3 Xrotation Zrotation Yrotation 
		JOINT lShin
		{
			OFFSET -2.053232 -20.121670 0.000000
			CHANNELS 3 Xrotation Zrotation Yrotation 
			JOINT lFoot
			{
				OFFSET 0.000000 -19.300380 -1.231939
				CHANNELS 3 Xrotation Yrotation Zrotation 
				End Site
				{
					OFFSET 0.000000 -2.463878 4.653993
				}
			}
		}
	}
	JOINT rThigh
	{
		OFFSET -5.338403 -1.642589 1.368821
		CHANNELS 3 Xrotation Zrotation Yrotation 
		JOINT rShin
		{
			OFFSET 2.053232 -20.121670 0.000000
			CHANNELS 3 Xrotation Zrotation Yrotation 
			JOINT rFoot
			{
				OFFSET 0.000000 -19.300380 -1.231939
				CHANNELS 3 Xrotation Yrotation Zrotation 
				End Site
				{
					OFFSET 0.000000 -2.463878 4.653993
				}
			}
		}
	}
}
MOTION
Frames: 15
Frame Time: 0.033264
0.820026 14.416867 7.575284 21.623381 0.000000 0.000000 54.711563 0.566827 -0.247027 32.614223 0.987782 -1.862820 -48.002895 0.000000 0.000000 -34.320740 -8.701779 0.555701 -21.873505 40.084301 27.981741 36.574356 -61.074772 -88.104332 -65.237259 10.307661 -45.525558 -44.943962 -9.000485 9.055651 11.041267 -17.982784 2.809963 -57.713459 65.893593 -51.429325 46.381966 -0.271197 -56.005112 53.056717 51.030109 15.000856 -3.386138 65.406776 17.839085 83.096916 1.110807 -0.624757 0.000000 0.000000 0.000000 -3.269178 -65.592018 -18.133289 83.105438 -1.105211 0.620552 0.225603 -0.305702 0.065224 
0.820026 14.396442 7.497036 21.748444 0.000000 0.000000 54.690289 0.566309 -0.247021 32.614223 0.987782 -1.862820 -48.002895 0.000000 0.000000 -34.262779 -8.942637 0.546294 -21.849571 39.920052 26.969183 35.766117 -61.449409 -87.449402 -65.226662 10.317930 -45.527519 -45.231216 -8.501099 8.596058 10.916364 -18.012794 2.685268 -57.713459 65.893593 -51.429325 46.381966 -0.271197 -56.005112 53.056717 51.030109 15.000856 -3.979154 65.553749 17.472956 83.384735 1.134774 -0.620403 0.000000 0.000000 0.000000 -3.870074 -65.730858 -17.749918 83.392807 -1.129478 0.616171 0.213719 -0.289618 0.061761 
0.820026 14.376017 7.418788 21.873501 0.000000 0.000000 54.669018 0.565791 -0.247014 32.614223 0.987782 -1.862820 -48.002895 0.000000 0.000000 -34.204762 -9.183399 0.536637 -21.829473 39.755550 25.959448 34.939133 -61.819485 -86.775459 -65.216064 10.328196 -45.529488 -45.522102 -8.004103 8.134607 10.791369 -18.042545 2.560485 -57.713459 65.893593 -51.429325 46.381966 -0.271197 -56.005112 53.056717 51.030109 15.000856 -4.577769 65.699135 17.101101 83.672523 1.158718 -0.615929 0.000000 0.000000 0.000000 -4.476428 -65.867996 -17.360960 83.680168 -1.153721 0.611669 0.201837 -0.273534 0.058301 
0.820026 14.355591 7.340541 21.998560 0.000000 0.000000 54.647747 0.565273 -0.247007 32.614223 0.987782 -1.862820 -48.002895 0.000000 0.000000 -34.146687 -9.424063 0.526730 -21.813200 39.590885 24.952662 34.092960 -62.184776 -86.082047 -65.205467 10.338469 -45.531445 -45.816582 -7.509573 7.671282 10.666288 -18.072037 2.435614 -57.713459 65.893593 -51.429325 46.381966 -0.271197 -56.005112 53.056717 51.030109 15.000856 -5.182010 65.842880 16.723480 83.960327 1.182638 -0.611335 0.000000 0.000000 0.000000 -5.088280 -66.003479 -16.966404 83.967514 -1.177941 0.607045 0.189956 -0.257448 0.054845 
0.820026 14.335165 7.262293 22.123617 0.000000 0.000000 54.626480 0.564754 -0.247000 32.614223 0.987782 -1.862820 -48.002895 0.000000 0.000000 -34.088551 -9.664623 0.516573 -21.800720 39.426128 23.948948 33.227123 -62.545109 -85.368713 -65.194862 10.348730 -45.533413 -46.114655 -7.017601 7.206077 10.541119 -18.101265 2.310656 -57.713459 65.893593 -51.429325 46.381966 -0.271197 -56.005112 53.056717 51.030109 15.000856 -5.791903 65.984970 16.340069 84.248123 1.206534 -0.606621 0.000000 0.000000 0.000000 -5.705623 -66.137192 -16.566221 84.254852 -1.202136 0.602300 0.178076 -0.241363 0.051392 
0.820026 14.314739 7.184046 22.248669 0.000000 0.000000 54.605202 0.564236 -0.246993 32.614223 0.987782 -1.862820 -48.002895 0.000000 0.000000 -34.030338 -9.905076 0.506164 -21.792004 39.261360 22.948421 32.341167 -62.900280 -84.635010 -65.184280 10.359000 -45.535393 -46.416298 -6.528268 6.738983 10.415867 -18.130238 2.185613 -57.713459 65.893593 -51.429325 46.381966 -0.271197 -56.005112 53.056717 51.030109 15.000856 -6.407478 66.125374 15.950840 84.535904 1.230405 -0.601788 0.000000 0.000000 0.000000 -6.328477 -66.269142 -16.160410 84.542175 -1.226305 0.597434 0.166197 -0.225276 0.047942 
0.820026 14.294314 7.105798 22.373726 0.000000 0.000000 54.583931 0.563718 -0.246986 32.614223 0.987782 -1.862820 -48.002895 0.000000 0.000000 -33.972076 -10.145422 0.495505 -21.787016 39.096642 21.951191 31.434618 -63.250031 -83.880417 -65.173660 10.369264 -45.537361 -46.721512 -6.041658 6.269994 10.290529 -18.158949 2.060485 -57.713459 65.893593 -51.429325 46.381966 -0.271197 -56.005112 53.056717 51.030109 15.000856 -7.028749 66.264038 15.555775 84.823639 1.254248 -0.596834 0.000000 0.000000 0.000000 -6.956837 -66.399231 -15.748944 84.829483 -1.250448 0.592447 0.154319 -0.209189 0.044496 
0.820026 14.273889 7.027550 22.498777 0.000000 0.000000 54.562668 0.563200 -0.246978 32.614223 0.987782 -1.862820 -48.002895 0.000000 0.000000 -33.913746 -10.385658 0.484593 -21.785732 38.932072 20.957386 30.507051 -63.594170 -83.104561 -65.163055 10.379530 -45.539333 -47.030235 -5.557853 5.799103 10.165108 -18.187395 1.935274 -57.713459 65.893593 -51.429325 46.381966 -0.271197 -56.005112 53.056717 51.030109 15.000856 -7.655735 66.400925 15.154848 85.111374 1.278065 -0.591762 0.000000 0.000000 0.000000 -7.590726 -66.527534 -15.331849 85.116783 -1.274564 0.587340 0.142442 -0.193101 0.041053 
0.820026 14.253463 6.949303 22.623825 0.000000 0.000000 54.541389 0.562681 -0.246971 32.614223 0.987782 -1.862820 -48.002895 0.000000 0.000000 -33.855347 -10.625784 0.473430 -21.788103 38.767708 19.967104 29.558016 -63.932457 -82.306961 -65.152466 10.389800 -45.541317 -47.342491 -5.076932 5.326305 10.039603 -18.215582 1.809981 -57.713459 65.893593 -51.429325 46.381966 -0.271197 -56.005112 53.056717 51.030109 15.000856 -8.288456 66.536041 14.748049 85.399101 1.301854 -0.586570 0.000000 0.000000 0.000000 -8.230130 -66.653946 -14.909100 85.404053 -1.298651 0.582112 0.130566 -0.177013 0.037613 
0.820026 14.233038 6.871055 22.748873 0.000000 0.000000 54.520119 0.562163 -0.246963 32.614223 0.987782 -1.862820 -48.002895 0.000000 0.000000 -33.796883 -10.865793 0.462012 -21.794096 38.603634 18.980463 28.587130 -64.264633 -81.487236 -65.141861 10.400062 -45.543297 -47.658234 -4.598982 4.851600 9.914022 -18.243513 1.684607 -57.713459 65.893593 -51.429325 46.381966 -0.271197 -56.005112 53.056717 51.030109 15.000856 -8.926922 66.669334 14.335367 85.686798 1.325613 -0.581260 0.000000 0.000000 0.000000 -8.875047 -66.778442 -14.480706 85.691292 -1.322709 0.576764 0.118691 -0.160924 0.034177 
0.820026 14.212612 6.792808 22.873919 0.000000 0.000000 54.498848 0.561645 -0.246955 32.614223 0.987782 -1.862820 -48.002895 0.000000 0.000000 -33.738350 -11.105684 0.450341 -21.803659 38.439911 17.997559 27.594007 -64.590530 -80.645035 -65.131248 10.410325 -45.545269 -47.977474 -4.124081 4.374988 9.788355 -18.271170 1.559152 -57.713459 65.893593 -51.429325 46.381966 -0.271197 -56.005112 53.056717 51.030109 15.000856 -9.571123 66.800720 13.916784 85.974449 1.349342 -0.575831 0.000000 0.000000 0.000000 -9.525470 -66.900993 -14.046674 85.978493 -1.346737 0.571296 0.106818 -0.144834 0.030744 
0.820026 14.192186 6.714560 22.998960 0.000000 0.000000 54.477581 0.561127 -0.246946 32.614223 0.987782 -1.862820 -48.002895 0.000000 0.000000 -33.679733 -11.345457 0.438416 -21.816748 38.276608 17.018494 26.578234 -64.909782 -79.779877 -65.120651 10.420589 -45.547253 -48.300137 -3.652306 3.896463 9.662613 -18.298574 1.433619 -57.713459 65.893593 -51.429325 46.381966 -0.271197 -56.005112 53.056717 51.030109 15.000856 -10.221086 66.930222 13.492299 86.262054 1.373041 -0.570283 0.000000 0.000000 0.000000 -10.181390 -67.021584 -13.607018 86.265656 -1.370734 0.565709 0.094945 -0.128744 0.027315 
0.820026 14.171761 6.636312 23.123995 0.000000 0.000000 54.456310 0.560609 -0.246938 32.614223 0.987782 -1.862820 -48.002895 0.000000 0.000000 -33.621059 -11.585110 0.426236 -21.833321 38.113808 16.043379 25.539568 -65.222237 -78.891586 -65.110046 10.430854 -45.549236 -48.626247 -3.183740 3.416032 9.536794 -18.325712 1.308009 -57.713459 65.893593 -51.429325 46.381966 -0.271197 -56.005112 53.056717 51.030109 15.000856 -10.876805 67.057831 13.061922 86.549629 1.396708 -0.564618 0.000000 0.000000 0.000000 -10.842782 -67.140152 -13.161750 86.552788 -1.394698 0.560002 0.083073 -0.112653 0.023889 
0.820026 14.151335 6.558064 23.249031 0.000000 0.000000 54.435036 0.560090 -0.246929 32.614223 0.987782 -1.862820 -48.002895 0.000000 0.000000 -33.562298 -11.824636 0.413800 -21.853333 37.951599 15.072311 24.477650 -65.527603 -77.979790 -65.099442 10.441118 -45.551228 -48.955753 -2.718458 2.933694 9.410896 -18.352591 1.182321 -57.713459 65.893593 -51.429325 46.381966 -0.271197 -56.005112 53.056717 51.030109 15.000856 -11.538268 67.183426 12.625637 86.837173 1.420342 -0.558835 0.000000 0.000000 0.000000 -11.509645 -67.256706 -12.710892 86.839867 -1.418630 0.554176 0.071202 -0.096562 0.020466 
0.820026 14.130910 6.479816 23.374060 0.000000 0.000000 54.413773 0.559572 -0.246921 32.614223 0.987782 -1.862820 -48.002895 0.000000 0.000000 -33.503460 -12.064037 0.401109 -21.876715 37.790009 14.105379 23.392237 -65.825600 -77.044220 -65.088837 10.451384 -45.553211 -49.288651 -2.256540 2.449457 9.284925 -18.379200 1.056559 -57.713459 65.893593 -51.429325 46.381966 -0.271197 -56.005112 53.056717 51.030109 15.000856 -12.205472 67.307053 12.183472 87.124657 1.443943 -0.552933 0.000000 0.000000 0.000000 -12.181919 -67.371132 -12.254454 87.126945 -1.442529 0.548231 0.059333 -0.080469 0.017047 
